# xmcd
#
# Track frame offsets: 
#        150
#        17225
#        38360
#        62172
#        79325
#        94945
#        108872
#        133760
#        150995
#        173765
#        192692
#        211257
#        226337
#        249910
#        268155
#        299557
#
# Disc length: 4130 seconds
#
# Revision: 2
# Processed by: cddbd v1.4PL0 Copyright (c) Steve Scherf et al.
# Submitted via: ExactAudioCopy v0.90b4
#
DISCID=dd102010
DTITLE=Dave Hole - Short Fuse Blues
DYEAR=1992
DGENRE=
TTITLE0=Keep Your Motor Runnin'
TTITLE1=The Bottle
TTITLE2=Short Fuse Blues
TTITLE3=Every Girl I See
TTITLE4=Something Fine
TTITLE5=Travelling Riverside Blues
TTITLE6=Nightcat
TTITLE7=Purple Haze
TTITLE8=Tore Down
TTITLE9=Albatross
TTITLE10=Business Man
TTITLE11=I'm Your Man
TTITLE12=The Sun Is Shining
TTITLE13=Truckload Of Lovin'
TTITLE14=Take A Swing
TTITLE15=Dark Was The Night
EXTD=
EXTT0=
EXTT1=
EXTT2=
EXTT3=
EXTT4=
EXTT5=
EXTT6=
EXTT7=
EXTT8=
EXTT9=
EXTT10=
EXTT11=
EXTT12=
EXTT13=
EXTT14=
EXTT15=
PLAYORDER=
